<svg width="350" height="350" viewBox="0 0 350 350" fill="none" xmlns="http://www.w3.org/2000/svg">
<path d="M50 60.4954H300C325.681 60.4954 346.5 81.3141 346.5 106.995V300C346.5 325.681 325.681 346.5 300 346.5H50C24.3188 346.5 3.5 325.681 3.5 300V106.995C3.5 81.3141 24.3188 60.4954 50 60.4954Z" stroke="black" stroke-width="7"/>
<path d="M0 106.995C0 79.3811 22.3858 56.9954 50 56.9954H300C327.614 56.9954 350 79.3811 350 106.995V122.018H0V106.995Z" fill="black"/>
<rect x="53.8457" y="151.72" width="26.9231" height="28.8991" fill="black"/>
<rect x="139.103" y="151.72" width="26.9231" height="28.8991" fill="black"/>
<rect x="266.987" y="151.72" width="26.9231" height="28.8991" fill="black"/>
<rect x="53.8457" y="199.885" width="26.9231" height="28.8991" fill="black"/>
<rect x="53.8457" y="248.051" width="26.9231" height="28.8991" fill="black"/>
<rect x="96.4746" y="248.051" width="26.9231" height="28.8991" fill="black"/>
<rect x="139.103" y="248.051" width="26.9231" height="28.8991" fill="black"/>
<rect x="181.73" y="248.051" width="26.9231" height="28.8991" fill="black"/>
<rect x="224.359" y="248.051" width="26.9231" height="28.8991" fill="black"/>
<rect x="266.987" y="248.051" width="26.9231" height="28.8991" fill="black"/>
<rect x="96.4746" y="199.885" width="26.9231" height="28.8991" fill="black"/>
<rect x="181.73" y="199.885" width="26.9231" height="28.8991" fill="black"/>
<rect x="224.359" y="199.885" width="26.9231" height="28.8991" fill="black"/>
<rect x="266.987" y="199.885" width="26.9231" height="28.8991" fill="black"/>
<rect x="55.3418" width="30.9723" height="84.289" rx="15.4861" fill="white"/>
<rect x="60.0342" y="6.04443" width="21.5867" height="72.1997" rx="10.7934" fill="black"/>
<rect x="263.248" width="30.9723" height="84.289" rx="15.4861" fill="white"/>
<rect x="267.94" y="6.04443" width="21.5867" height="72.1997" rx="10.7934" fill="black"/>
<rect x="96.9746" y="152.22" width="25.9231" height="27.8991" stroke="black"/>
<line y1="-0.5" x2="38.3998" y2="-0.5" transform="matrix(-0.68165 0.731679 -0.68165 -0.731679 122.648 151.72)" stroke="black"/>
<line y1="-0.5" x2="38.3998" y2="-0.5" transform="matrix(0.68165 0.731679 -0.68165 0.731679 96.4736 152.523)" stroke="black"/>
<rect x="182.23" y="152.22" width="25.9231" height="27.8991" stroke="black"/>
<line y1="-0.5" x2="38.3998" y2="-0.5" transform="matrix(-0.68165 0.731679 -0.68165 -0.731679 207.906 151.72)" stroke="black"/>
<line y1="-0.5" x2="38.3998" y2="-0.5" transform="matrix(0.68165 0.731679 -0.68165 0.731679 181.73 152.523)" stroke="black"/>
<rect x="224.859" y="151.417" width="25.9231" height="27.8991" stroke="black"/>
<line y1="-0.5" x2="38.3998" y2="-0.5" transform="matrix(-0.68165 0.731679 -0.68165 -0.731679 250.533 150.917)" stroke="black"/>
<line y1="-0.5" x2="38.3998" y2="-0.5" transform="matrix(0.68165 0.731679 -0.68165 0.731679 224.358 151.72)" stroke="black"/>
<rect x="139.603" y="200.385" width="25.9231" height="27.8991" stroke="black"/>
<path d="M72.028 315.468C72.028 316.439 71.794 317.349 71.326 318.198C70.8753 319.047 70.156 319.732 69.168 320.252C68.1973 320.772 66.9667 321.032 65.476 321.032H62.434V328H58.794V309.852H65.476C66.88 309.852 68.076 310.095 69.064 310.58C70.052 311.065 70.7887 311.733 71.274 312.582C71.7767 313.431 72.028 314.393 72.028 315.468ZM65.32 318.094C66.3253 318.094 67.0707 317.869 67.556 317.418C68.0413 316.95 68.284 316.3 68.284 315.468C68.284 313.7 67.296 312.816 65.32 312.816H62.434V318.094H65.32ZM78.2524 315.832C78.7204 315.069 79.327 314.471 80.0724 314.038C80.835 313.605 81.7017 313.388 82.6724 313.388V317.21H81.7104C80.5664 317.21 79.6997 317.479 79.1104 318.016C78.5384 318.553 78.2524 319.489 78.2524 320.824V328H74.6124V313.596H78.2524V315.832ZM98.5141 320.486C98.5141 321.006 98.4794 321.474 98.4101 321.89H87.8801C87.9667 322.93 88.3307 323.745 88.9721 324.334C89.6134 324.923 90.4021 325.218 91.3381 325.218C92.6901 325.218 93.6521 324.637 94.2241 323.476H98.1501C97.7341 324.863 96.9367 326.007 95.7581 326.908C94.5794 327.792 93.1321 328.234 91.4161 328.234C90.0294 328.234 88.7814 327.931 87.6721 327.324C86.5801 326.7 85.7221 325.825 85.0981 324.698C84.4914 323.571 84.1881 322.271 84.1881 320.798C84.1881 319.307 84.4914 317.999 85.0981 316.872C85.7047 315.745 86.5541 314.879 87.6461 314.272C88.7381 313.665 89.9947 313.362 91.4161 313.362C92.7854 313.362 94.0074 313.657 95.0821 314.246C96.1741 314.835 97.0147 315.676 97.6041 316.768C98.2107 317.843 98.5141 319.082 98.5141 320.486ZM94.7441 319.446C94.7267 318.51 94.3887 317.765 93.7301 317.21C93.0714 316.638 92.2654 316.352 91.3121 316.352C90.4107 316.352 89.6481 316.629 89.0241 317.184C88.4174 317.721 88.0447 318.475 87.9061 319.446H94.7441ZM107.177 324.646L110.817 313.596H114.691L109.361 328H104.941L99.637 313.596H103.537L107.177 324.646ZM118.581 311.88C117.94 311.88 117.403 311.681 116.969 311.282C116.553 310.866 116.345 310.355 116.345 309.748C116.345 309.141 116.553 308.639 116.969 308.24C117.403 307.824 117.94 307.616 118.581 307.616C119.223 307.616 119.751 307.824 120.167 308.24C120.601 308.639 120.817 309.141 120.817 309.748C120.817 310.355 120.601 310.866 120.167 311.282C119.751 311.681 119.223 311.88 118.581 311.88ZM120.375 313.596V328H116.735V313.596H120.375ZM130.368 328.234C128.981 328.234 127.733 327.931 126.624 327.324C125.514 326.7 124.639 325.825 123.998 324.698C123.374 323.571 123.062 322.271 123.062 320.798C123.062 319.325 123.382 318.025 124.024 316.898C124.682 315.771 125.575 314.905 126.702 314.298C127.828 313.674 129.085 313.362 130.472 313.362C131.858 313.362 133.115 313.674 134.242 314.298C135.368 314.905 136.252 315.771 136.894 316.898C137.552 318.025 137.882 319.325 137.882 320.798C137.882 322.271 137.544 323.571 136.868 324.698C136.209 325.825 135.308 326.7 134.164 327.324C133.037 327.931 131.772 328.234 130.368 328.234ZM130.368 325.062C131.026 325.062 131.642 324.906 132.214 324.594C132.803 324.265 133.271 323.779 133.618 323.138C133.964 322.497 134.138 321.717 134.138 320.798C134.138 319.429 133.774 318.38 133.046 317.652C132.335 316.907 131.46 316.534 130.42 316.534C129.38 316.534 128.504 316.907 127.794 317.652C127.1 318.38 126.754 319.429 126.754 320.798C126.754 322.167 127.092 323.225 127.768 323.97C128.461 324.698 129.328 325.062 130.368 325.062ZM154.15 313.596V328H150.484V326.18C150.016 326.804 149.4 327.298 148.638 327.662C147.892 328.009 147.078 328.182 146.194 328.182C145.067 328.182 144.07 327.948 143.204 327.48C142.337 326.995 141.652 326.293 141.15 325.374C140.664 324.438 140.422 323.329 140.422 322.046V313.596H144.062V321.526C144.062 322.67 144.348 323.554 144.92 324.178C145.492 324.785 146.272 325.088 147.26 325.088C148.265 325.088 149.054 324.785 149.626 324.178C150.198 323.554 150.484 322.67 150.484 321.526V313.596H154.15ZM163.253 328.234C162.075 328.234 161.017 328.026 160.081 327.61C159.145 327.177 158.4 326.596 157.845 325.868C157.308 325.14 157.013 324.334 156.961 323.45H160.627C160.697 324.005 160.965 324.464 161.433 324.828C161.919 325.192 162.517 325.374 163.227 325.374C163.921 325.374 164.458 325.235 164.839 324.958C165.238 324.681 165.437 324.325 165.437 323.892C165.437 323.424 165.195 323.077 164.709 322.852C164.241 322.609 163.487 322.349 162.447 322.072C161.373 321.812 160.489 321.543 159.795 321.266C159.119 320.989 158.53 320.564 158.027 319.992C157.542 319.42 157.299 318.649 157.299 317.678C157.299 316.881 157.525 316.153 157.975 315.494C158.443 314.835 159.102 314.315 159.951 313.934C160.818 313.553 161.832 313.362 162.993 313.362C164.709 313.362 166.079 313.795 167.101 314.662C168.124 315.511 168.687 316.664 168.791 318.12H165.307C165.255 317.548 165.013 317.097 164.579 316.768C164.163 316.421 163.6 316.248 162.889 316.248C162.231 316.248 161.719 316.369 161.355 316.612C161.009 316.855 160.835 317.193 160.835 317.626C160.835 318.111 161.078 318.484 161.563 318.744C162.049 318.987 162.803 319.238 163.825 319.498C164.865 319.758 165.723 320.027 166.399 320.304C167.075 320.581 167.656 321.015 168.141 321.604C168.644 322.176 168.904 322.939 168.921 323.892C168.921 324.724 168.687 325.469 168.219 326.128C167.769 326.787 167.11 327.307 166.243 327.688C165.394 328.052 164.397 328.234 163.253 328.234ZM188.401 318.692C189.423 318.883 190.264 319.394 190.923 320.226C191.581 321.058 191.911 322.011 191.911 323.086C191.911 324.057 191.668 324.915 191.183 325.66C190.715 326.388 190.03 326.96 189.129 327.376C188.227 327.792 187.161 328 185.931 328H178.105V309.852H185.593C186.823 309.852 187.881 310.051 188.765 310.45C189.666 310.849 190.342 311.403 190.793 312.114C191.261 312.825 191.495 313.631 191.495 314.532C191.495 315.589 191.209 316.473 190.637 317.184C190.082 317.895 189.337 318.397 188.401 318.692ZM181.745 317.34H185.073C185.939 317.34 186.607 317.149 187.075 316.768C187.543 316.369 187.777 315.806 187.777 315.078C187.777 314.35 187.543 313.787 187.075 313.388C186.607 312.989 185.939 312.79 185.073 312.79H181.745V317.34ZM185.411 325.036C186.295 325.036 186.979 324.828 187.465 324.412C187.967 323.996 188.219 323.407 188.219 322.644C188.219 321.864 187.959 321.257 187.439 320.824C186.919 320.373 186.217 320.148 185.333 320.148H181.745V325.036H185.411ZM201.208 328.234C199.821 328.234 198.573 327.931 197.464 327.324C196.354 326.7 195.479 325.825 194.838 324.698C194.214 323.571 193.902 322.271 193.902 320.798C193.902 319.325 194.222 318.025 194.864 316.898C195.522 315.771 196.415 314.905 197.542 314.298C198.668 313.674 199.925 313.362 201.312 313.362C202.698 313.362 203.955 313.674 205.082 314.298C206.208 314.905 207.092 315.771 207.734 316.898C208.392 318.025 208.722 319.325 208.722 320.798C208.722 322.271 208.384 323.571 207.708 324.698C207.049 325.825 206.148 326.7 205.004 327.324C203.877 327.931 202.612 328.234 201.208 328.234ZM201.208 325.062C201.866 325.062 202.482 324.906 203.054 324.594C203.643 324.265 204.111 323.779 204.458 323.138C204.804 322.497 204.978 321.717 204.978 320.798C204.978 319.429 204.614 318.38 203.886 317.652C203.175 316.907 202.3 316.534 201.26 316.534C200.22 316.534 199.344 316.907 198.634 317.652C197.94 318.38 197.594 319.429 197.594 320.798C197.594 322.167 197.932 323.225 198.608 323.97C199.301 324.698 200.168 325.062 201.208 325.062ZM217.788 328.234C216.401 328.234 215.153 327.931 214.044 327.324C212.934 326.7 212.059 325.825 211.418 324.698C210.794 323.571 210.482 322.271 210.482 320.798C210.482 319.325 210.802 318.025 211.444 316.898C212.102 315.771 212.995 314.905 214.122 314.298C215.248 313.674 216.505 313.362 217.892 313.362C219.278 313.362 220.535 313.674 221.662 314.298C222.788 314.905 223.672 315.771 224.314 316.898C224.972 318.025 225.302 319.325 225.302 320.798C225.302 322.271 224.964 323.571 224.288 324.698C223.629 325.825 222.728 326.7 221.584 327.324C220.457 327.931 219.192 328.234 217.788 328.234ZM217.788 325.062C218.446 325.062 219.062 324.906 219.634 324.594C220.223 324.265 220.691 323.779 221.038 323.138C221.384 322.497 221.558 321.717 221.558 320.798C221.558 319.429 221.194 318.38 220.466 317.652C219.755 316.907 218.88 316.534 217.84 316.534C216.8 316.534 215.924 316.907 215.214 317.652C214.52 318.38 214.174 319.429 214.174 320.798C214.174 322.167 214.512 323.225 215.188 323.97C215.881 324.698 216.748 325.062 217.788 325.062ZM236.5 328L231.612 321.864V328H227.972V308.76H231.612V319.706L236.448 313.596H241.18L234.836 320.824L241.232 328H236.5ZM245.001 311.88C244.36 311.88 243.823 311.681 243.389 311.282C242.973 310.866 242.765 310.355 242.765 309.748C242.765 309.141 242.973 308.639 243.389 308.24C243.823 307.824 244.36 307.616 245.001 307.616C245.643 307.616 246.171 307.824 246.587 308.24C247.021 308.639 247.237 309.141 247.237 309.748C247.237 310.355 247.021 310.866 246.587 311.282C246.171 311.681 245.643 311.88 245.001 311.88ZM246.795 313.596V328H243.155V313.596H246.795ZM258.374 313.388C260.09 313.388 261.476 313.934 262.534 315.026C263.591 316.101 264.12 317.609 264.12 319.55V328H260.48V320.044C260.48 318.9 260.194 318.025 259.622 317.418C259.05 316.794 258.27 316.482 257.282 316.482C256.276 316.482 255.479 316.794 254.89 317.418C254.318 318.025 254.032 318.9 254.032 320.044V328H250.392V313.596H254.032V315.39C254.517 314.766 255.132 314.281 255.878 313.934C256.64 313.57 257.472 313.388 258.374 313.388ZM273.223 313.362C274.298 313.362 275.242 313.579 276.057 314.012C276.872 314.428 277.513 314.974 277.981 315.65V313.596H281.647V328.104C281.647 329.439 281.378 330.626 280.841 331.666C280.304 332.723 279.498 333.555 278.423 334.162C277.348 334.786 276.048 335.098 274.523 335.098C272.478 335.098 270.796 334.621 269.479 333.668C268.179 332.715 267.442 331.415 267.269 329.768H270.883C271.074 330.427 271.481 330.947 272.105 331.328C272.746 331.727 273.518 331.926 274.419 331.926C275.476 331.926 276.334 331.605 276.993 330.964C277.652 330.34 277.981 329.387 277.981 328.104V325.868C277.513 326.544 276.863 327.107 276.031 327.558C275.216 328.009 274.28 328.234 273.223 328.234C272.01 328.234 270.9 327.922 269.895 327.298C268.89 326.674 268.092 325.799 267.503 324.672C266.931 323.528 266.645 322.219 266.645 320.746C266.645 319.29 266.931 317.999 267.503 316.872C268.092 315.745 268.881 314.879 269.869 314.272C270.874 313.665 271.992 313.362 273.223 313.362ZM277.981 320.798C277.981 319.914 277.808 319.16 277.461 318.536C277.114 317.895 276.646 317.409 276.057 317.08C275.468 316.733 274.835 316.56 274.159 316.56C273.483 316.56 272.859 316.725 272.287 317.054C271.715 317.383 271.247 317.869 270.883 318.51C270.536 319.134 270.363 319.879 270.363 320.746C270.363 321.613 270.536 322.375 270.883 323.034C271.247 323.675 271.715 324.169 272.287 324.516C272.876 324.863 273.5 325.036 274.159 325.036C274.835 325.036 275.468 324.871 276.057 324.542C276.646 324.195 277.114 323.71 277.461 323.086C277.808 322.445 277.981 321.682 277.981 320.798Z" fill="black"/>
<line y1="-0.5" x2="38.3998" y2="-0.5" transform="matrix(-0.68165 0.731679 -0.68165 -0.731679 165.277 199.885)" stroke="black"/>
<line y1="-0.5" x2="38.3998" y2="-0.5" transform="matrix(0.68165 0.731679 -0.68165 0.731679 139.103 200.688)" stroke="black"/>
</svg>
