<svg width="350" height="350" viewBox="0 0 350 350" fill="none" xmlns="http://www.w3.org/2000/svg">
<path d="M345 293.544C345 310.708 340.387 321.692 332.785 328.991C325.028 336.439 313.434 340.764 298.029 342.99C282.657 345.211 264.181 345.255 243.248 344.709C236.975 344.545 230.48 344.329 223.802 344.106C208.354 343.591 191.927 343.043 175 343.043C158.073 343.043 141.646 343.591 126.198 344.106C119.52 344.329 113.025 344.545 106.752 344.709C85.819 345.255 67.3433 345.211 51.9714 342.99C36.5665 340.764 24.9723 336.439 17.2153 328.991C9.61281 321.692 5 310.708 5 293.544C5 259.281 23.5316 227.877 54.2536 204.868C84.9769 181.858 127.651 167.477 175 167.477C222.349 167.477 265.023 181.858 295.746 204.868C326.468 227.877 345 259.281 345 293.544Z" stroke="black" stroke-width="10"/>
<path d="M250 81.1594C250 123.289 216.354 157.319 175 157.319C133.646 157.319 100 123.289 100 81.1594C100 39.0297 133.646 5 175 5C216.354 5 250 39.0297 250 81.1594Z" stroke="black" stroke-width="10"/>
</svg>
